<svg width="24" height="24" viewBox="0 0 24 24" fill="none" xmlns="http://www.w3.org/2000/svg">
<path d="M15.0854 12.4687C14.8267 12.7922 14.3547 12.8446 14.0313 12.5858L12.7498 11.5607V15.0002C12.7498 15.4144 12.414 15.7502 11.9998 15.7502C11.5856 15.7502 11.2498 15.4144 11.2498 15.0002V11.5606L9.96831 12.5858C9.64486 12.8446 9.17289 12.7922 8.91414 12.4687C8.65538 12.1453 8.70782 11.6733 9.03127 11.4145L11.5286 9.41666C11.6559 9.31377 11.8174 9.25166 11.9935 9.25021C11.9956 9.25019 11.9977 9.25018 11.9998 9.25018L12.0022 9.25019C12.1813 9.25075 12.3457 9.3141 12.4744 9.41937L14.9683 11.4145C15.2918 11.6733 15.3442 12.1453 15.0854 12.4687Z" fill="#C4C4C4"/>
<path fill-rule="evenodd" clip-rule="evenodd" d="M8.37984 7.19421C9.34158 5.69991 11.0203 4.7085 12.9317 4.7085C15.8122 4.7085 18.1669 6.95994 18.3319 9.79907C18.3953 9.7964 18.4591 9.79505 18.5231 9.79505C20.996 9.79505 23.0006 11.7997 23.0006 14.2726C23.0006 16.7455 20.996 18.7502 18.5231 18.7502H6.87443C3.62953 18.7502 0.999023 16.1197 0.999023 12.8748C0.999023 9.62988 3.62953 6.99938 6.87443 6.99938C7.39409 6.99938 7.89881 7.06702 8.37984 7.19421ZM12.9317 6.2085C11.3814 6.2085 10.0404 7.11083 9.40794 8.4223C9.2379 8.77491 8.82525 8.93743 8.46042 8.79546C7.96969 8.60451 7.43523 8.49938 6.87443 8.49938C4.45796 8.49938 2.49902 10.4583 2.49902 12.8748C2.49902 15.2912 4.45796 17.2502 6.87443 17.2502H18.5231C20.1675 17.2502 21.5006 15.9171 21.5006 14.2726C21.5006 12.6282 20.1675 11.2951 18.5231 11.2951C18.2555 11.2951 17.9973 11.3302 17.7522 11.3956C17.512 11.4598 17.2556 11.4007 17.0677 11.2379C16.8797 11.0752 16.7847 10.8298 16.8139 10.5829C16.8319 10.4307 16.8412 10.2756 16.8412 10.118C16.8412 7.95882 15.0909 6.2085 12.9317 6.2085Z" fill="#C4C4C4"/>
</svg>
