<svg width="25" height="24" viewBox="0 0 25 24" fill="none" xmlns="http://www.w3.org/2000/svg">
<path d="M15.4164 11.45C15.8306 11.45 16.1664 11.7858 16.1664 12.2C16.1664 12.6142 15.8306 12.95 15.4164 12.95H9.91636C9.50214 12.95 9.16636 12.6142 9.16636 12.2C9.16636 11.7858 9.50214 11.45 9.91636 11.45H15.4164Z" fill="#FD5959"/>
<path fill-rule="evenodd" clip-rule="evenodd" d="M4.90823 15.3042C2.66036 9.78675 6.71947 3.75 12.6773 3.75H12.9987C17.4543 3.75 21.0663 7.36201 21.0663 11.8176C21.0663 16.7785 17.0448 20.8 12.084 20.8H4.26371C3.94546 20.8 3.66185 20.5991 3.55623 20.2989C3.4506 19.9987 3.54595 19.6645 3.79409 19.4652L5.76558 17.8819C5.85179 17.8127 5.88228 17.6951 5.84057 17.5927L4.90823 15.3042ZM12.6773 5.25C7.78475 5.25 4.45143 10.2074 6.29737 14.7383L7.2297 17.0268C7.5217 17.7435 7.30825 18.5669 6.70483 19.0515L6.39538 19.3H12.084C16.2164 19.3 19.5663 15.95 19.5663 11.8176C19.5663 8.19044 16.6259 5.25 12.9987 5.25H12.6773Z" fill="#FD5959"/>
</svg>
