<svg width="500" height="365" viewBox="0 0 500 365" fill="none" xmlns="http://www.w3.org/2000/svg">
<path d="M487.117 325.531C485.439 312.861 477.48 300.427 465.352 296.396C470.226 309.412 470.338 323.732 465.67 336.823C463.851 341.865 461.303 347.284 463.091 352.337C464.204 355.481 466.884 357.872 469.87 359.356C472.857 360.841 476.164 361.534 479.429 362.212L480.075 362.738C485.158 351.012 488.794 338.201 487.117 325.531Z" fill="#F0F0F0"/>
<path d="M465.234 296.636C472.341 304.473 476.797 314.349 477.97 324.862C478.263 327.121 478.198 329.412 477.778 331.651C477.297 333.818 476.246 335.817 474.732 337.441C473.35 338.983 471.759 340.4 470.776 342.251C470.287 343.206 470.006 344.254 469.95 345.325C469.895 346.396 470.066 347.467 470.454 348.468C471.354 350.986 473.105 353.03 474.887 354.969C476.866 357.123 478.955 359.328 479.812 362.197C479.916 362.545 480.449 362.363 480.345 362.016C478.855 357.025 473.976 354.222 471.624 349.734C470.527 347.64 470.054 345.202 471.049 342.975C471.92 341.027 473.56 339.564 474.972 338.014C476.472 336.452 477.567 334.547 478.161 332.464C478.695 330.254 478.848 327.97 478.614 325.708C478.17 320.609 476.927 315.611 474.931 310.898C472.682 305.506 469.528 300.539 465.604 296.211C465.361 295.943 464.993 296.37 465.234 296.636V296.636Z" fill="white"/>
<path d="M477.792 321.455C479.529 321.019 481.054 319.979 482.096 318.522C483.137 317.064 483.627 315.284 483.477 313.5C483.445 313.139 482.883 313.171 482.914 313.532C483.057 315.194 482.601 316.852 481.628 318.207C480.656 319.562 479.231 320.525 477.611 320.922C477.259 321.008 477.442 321.541 477.792 321.455V321.455Z" fill="white"/>
<path d="M475.535 336.751C472.376 334.899 470.032 331.925 468.969 328.421C468.864 328.073 468.331 328.255 468.436 328.602C469.549 332.246 471.995 335.336 475.286 337.256C475.599 337.439 475.847 336.933 475.535 336.751V336.751Z" fill="white"/>
<path d="M472.164 306.044C471.527 306.353 470.823 306.499 470.116 306.468C469.408 306.438 468.72 306.233 468.112 305.87C467.8 305.684 467.553 306.19 467.862 306.376C468.536 306.773 469.297 306.999 470.078 307.034C470.86 307.069 471.638 306.912 472.345 306.578C472.414 306.552 472.471 306.5 472.503 306.434C472.536 306.367 472.542 306.291 472.521 306.22C472.497 306.15 472.445 306.092 472.379 306.059C472.312 306.026 472.234 306.02 472.164 306.044L472.164 306.044Z" fill="white"/>
<path d="M428.664 319.34C428.855 319.462 429.046 319.584 429.237 319.711C431.798 321.366 434.22 323.226 436.479 325.273C436.656 325.429 436.834 325.589 437.006 325.749C442.396 330.739 446.814 336.686 450.033 343.289C451.312 345.917 452.389 348.639 453.255 351.431C454.45 355.286 455.439 359.562 457.77 362.705C458.009 363.036 458.269 363.351 458.548 363.65L479.384 363.485C479.431 363.461 479.479 363.441 479.526 363.417L480.358 363.449C480.324 363.302 480.285 363.15 480.25 363.003C480.23 362.917 480.206 362.832 480.186 362.746C480.172 362.689 480.157 362.632 480.147 362.58C480.142 362.561 480.137 362.542 480.132 362.528C480.122 362.476 480.108 362.428 480.098 362.381C479.882 361.532 479.66 360.683 479.431 359.833C479.431 359.829 479.431 359.829 479.426 359.824C477.746 353.336 475.303 347.071 472.147 341.16C472.051 340.984 471.954 340.805 471.848 340.629C470.388 338.013 468.716 335.52 466.85 333.176C465.823 331.896 464.733 330.669 463.583 329.499C460.605 326.482 457.171 323.951 453.407 322.001C445.902 318.115 437.238 316.672 429.271 319.145C429.067 319.208 428.868 319.272 428.664 319.34Z" fill="#F0F0F0"/>
<path d="M428.713 319.604C439.105 321.583 448.609 326.785 455.876 334.473C457.47 336.101 458.797 337.969 459.809 340.009C460.73 342.029 461.094 344.259 460.863 346.466C460.688 348.529 460.271 350.619 460.601 352.689C460.786 353.745 461.192 354.751 461.792 355.64C462.393 356.529 463.175 357.281 464.086 357.846C466.321 359.315 468.95 359.893 471.541 360.368C474.417 360.896 477.413 361.399 479.824 363.174C480.116 363.389 480.433 362.924 480.141 362.709C475.946 359.621 470.363 360.32 465.783 358.153C463.646 357.141 461.801 355.48 461.255 353.102C460.777 351.022 461.206 348.867 461.4 346.78C461.658 344.629 461.385 342.448 460.605 340.428C459.7 338.342 458.447 336.426 456.899 334.761C453.475 330.957 449.473 327.715 445.041 325.153C440 322.202 434.49 320.135 428.752 319.042C428.396 318.975 428.36 319.537 428.713 319.604V319.604Z" fill="white"/>
<path d="M453.682 331.86C454.806 330.466 455.398 328.717 455.352 326.926C455.306 325.136 454.626 323.42 453.431 322.085C453.189 321.816 452.759 322.18 453.002 322.45C454.116 323.691 454.75 325.289 454.79 326.957C454.829 328.624 454.271 330.251 453.216 331.543C452.987 331.824 453.454 332.139 453.682 331.86Z" fill="white"/>
<path d="M461.089 345.432C457.452 345.855 453.789 344.891 450.831 342.733C450.538 342.519 450.222 342.985 450.514 343.199C453.597 345.439 457.41 346.434 461.194 345.985C461.555 345.942 461.448 345.389 461.089 345.432V345.432Z" fill="white"/>
<path d="M439.91 322.944C439.587 323.574 439.113 324.114 438.53 324.516C437.947 324.917 437.273 325.168 436.57 325.245C436.209 325.283 436.316 325.836 436.675 325.798C437.452 325.709 438.195 325.432 438.84 324.99C439.486 324.547 440.012 323.954 440.375 323.261C440.415 323.198 440.429 323.123 440.415 323.05C440.402 322.978 440.361 322.913 440.301 322.869C440.239 322.828 440.163 322.812 440.09 322.826C440.017 322.84 439.952 322.882 439.91 322.944L439.91 322.944Z" fill="white"/>
<path d="M349.805 198.066C350.167 198.543 350.63 198.934 351.16 199.213C351.689 199.491 352.274 199.65 352.872 199.678C353.47 199.706 354.066 199.603 354.62 199.376C355.174 199.148 355.671 198.802 356.076 198.362L369.419 204.165L368.119 196.717L355.648 192.348C354.863 191.716 353.874 191.394 352.867 191.442C351.861 191.491 350.907 191.907 350.187 192.612C349.467 193.317 349.03 194.261 348.96 195.267C348.889 196.272 349.19 197.268 349.805 198.066V198.066Z" fill="#A0616A"/>
<path d="M361.945 193.858L387.433 197.162L413.719 181.328C415.124 180.481 416.694 179.942 418.323 179.745C419.952 179.548 421.604 179.699 423.171 180.187C424.738 180.675 426.184 181.49 427.413 182.577C428.642 183.664 429.628 184.999 430.304 186.494C431.524 189.2 431.663 192.271 430.693 195.076C429.723 197.882 427.717 200.211 425.086 201.586L389.765 214.172L389.699 214.196L358.709 200.392L361.945 193.858Z" fill="#3F3D56"/>
<path d="M427.084 358.697H421.665L419.088 337.797L427.085 337.798L427.084 358.697Z" fill="#A0616A"/>
<path d="M428.466 363.949L410.995 363.949V363.728C410.995 361.924 411.711 360.195 412.987 358.919C414.262 357.644 415.991 356.928 417.795 356.928H417.795L420.987 354.507L426.941 356.928L428.466 356.928L428.466 363.949Z" fill="#2F2E41"/>
<path d="M406.087 355.282L400.802 356.476L393.684 336.658L401.484 334.896L406.087 355.282Z" fill="#A0616A"/>
<path d="M408.592 360.101L391.55 363.949L391.501 363.734C391.104 361.975 391.422 360.13 392.385 358.605C393.348 357.08 394.877 356 396.636 355.603L396.637 355.603L399.216 352.538L405.558 353.588L407.045 353.253L408.592 360.101Z" fill="#2F2E41"/>
<path d="M433.946 230.93C436.487 238.592 436.218 246.909 433.336 255.835L432.104 306.09C432.104 306.09 433.939 339.046 428.015 350.644H419.424L415.17 303.08L414.636 271.155L396.217 298.089L407.949 349.866L397.375 350.811L378.338 294.621L401.826 240.107L433.946 230.93Z" fill="#2F2E41"/>
<path d="M399.167 238.337L401.286 233.04L399.885 228.487L399.566 184.36L399.566 184.327L404.65 176.22L404.691 171.092L418.888 170.746L420.427 174.655L423.474 176.477C426.795 178.469 429.534 181.301 431.413 184.687C433.293 188.074 434.248 191.896 434.182 195.768L433.631 225.54L435.048 228.374C435.433 229.143 435.647 229.987 435.675 230.847C435.703 231.707 435.545 232.562 435.211 233.355C434.877 234.148 434.375 234.86 433.741 235.44C433.106 236.021 432.353 236.458 431.534 236.72L400.294 241.717L399.167 238.337Z" fill="#3F3D56"/>
<path d="M410.489 165.884C417.613 165.884 423.388 160.109 423.388 152.985C423.388 145.861 417.613 140.086 410.489 140.086C403.365 140.086 397.59 145.861 397.59 152.985C397.59 160.109 403.365 165.884 410.489 165.884Z" fill="#A0616A"/>
<path d="M423.921 155.797C424.306 154.176 424.129 151.895 423.912 150.263C423.633 148.111 422.906 146.042 421.777 144.189C420.647 142.336 419.141 140.741 417.356 139.508C416.672 138.988 415.858 138.665 415.004 138.573C414.576 138.537 414.149 138.637 413.782 138.859C413.415 139.081 413.128 139.413 412.962 139.808C412.747 139.271 412.424 138.784 412.013 138.377C411.602 137.97 411.112 137.651 410.574 137.44C409.492 137.025 408.328 136.869 407.174 136.982C404.939 137.166 402.795 137.952 400.97 139.257C399.145 140.561 397.708 142.335 396.81 144.391C396.465 145.209 395.503 142.186 395.067 142.959C394.665 143.763 393.966 144.378 393.117 144.673C392.261 144.911 391.914 148.435 391.577 147.614C391.316 148.221 391.213 148.884 391.277 149.542C391.342 150.2 391.571 150.831 391.945 151.376C392.319 151.922 392.825 152.363 393.415 152.661C394.006 152.958 394.662 153.101 395.323 153.076C396.186 152.964 397.042 152.8 397.886 152.585C399.435 152.39 401.002 152.769 402.291 153.65C403.581 154.531 404.502 155.854 404.883 157.368C405.118 156.488 405.495 155.651 405.997 154.89C406.252 154.512 406.593 154.2 406.993 153.98C407.393 153.76 407.84 153.639 408.296 153.627C408.732 153.677 409.153 153.815 409.533 154.034C409.914 154.253 410.246 154.547 410.508 154.899C411.076 155.565 411.503 156.343 412.075 157.006C413.753 158.952 416.023 163.49 418.416 163.16C420.303 162.898 423.396 158.01 423.921 155.797Z" fill="#2F2E41"/>
<path d="M362.403 232.302C362.952 232.54 363.547 232.655 364.145 232.639C364.743 232.623 365.331 232.476 365.866 232.208C366.401 231.94 366.872 231.558 367.243 231.089C367.615 230.62 367.879 230.075 368.018 229.493L382.494 228.03L377.718 222.169L364.704 224.456C363.71 224.289 362.689 224.491 361.835 225.026C360.981 225.561 360.352 226.39 360.069 227.357C359.785 228.324 359.866 229.362 360.296 230.273C360.727 231.184 361.476 231.906 362.403 232.302V232.302Z" fill="#A0616A"/>
<path d="M370.935 222.695L394.783 213.113L409.969 186.448C410.781 185.022 411.886 183.784 413.211 182.816C414.536 181.848 416.051 181.171 417.657 180.831C419.262 180.49 420.921 180.494 422.525 180.841C424.129 181.188 425.641 181.871 426.962 182.845V182.845C429.35 184.609 430.973 187.219 431.499 190.14C432.024 193.062 431.413 196.074 429.791 198.56L405.136 226.811L405.089 226.864L371.307 229.977L370.935 222.695Z" fill="#3F3D56"/>
<path d="M499.261 364.686H283.963C283.866 364.686 283.77 364.667 283.68 364.63C283.591 364.593 283.509 364.539 283.441 364.471C283.372 364.402 283.317 364.321 283.28 364.231C283.243 364.142 283.224 364.046 283.224 363.949C283.224 363.852 283.243 363.756 283.28 363.667C283.317 363.577 283.372 363.496 283.441 363.427C283.509 363.359 283.591 363.305 283.68 363.268C283.77 363.231 283.866 363.212 283.963 363.212H499.261C499.358 363.212 499.454 363.231 499.544 363.268C499.633 363.305 499.715 363.359 499.783 363.427C499.852 363.496 499.907 363.577 499.944 363.667C499.981 363.756 500 363.852 500 363.949C500 364.046 499.981 364.142 499.944 364.231C499.907 364.321 499.852 364.402 499.783 364.471C499.715 364.539 499.633 364.593 499.544 364.63C499.454 364.667 499.358 364.686 499.261 364.686V364.686Z" fill="#CCCCCC"/>
<path d="M360.121 244.88H262.281C261.599 244.879 260.946 244.608 260.464 244.126C259.982 243.644 259.71 242.99 259.71 242.308V202.609C259.71 201.927 259.982 201.273 260.464 200.791C260.946 200.309 261.599 200.038 262.281 200.037H360.121C360.803 200.038 361.457 200.309 361.939 200.791C362.421 201.273 362.692 201.927 362.693 202.609V242.308C362.692 242.99 362.421 243.644 361.939 244.126C361.457 244.608 360.803 244.879 360.121 244.88V244.88Z" fill="#4D76B5"/>
<path d="M350.805 263.924H271.597C271.192 263.924 270.79 263.845 270.415 263.69C270.04 263.535 269.7 263.308 269.413 263.022C269.125 262.735 268.898 262.395 268.742 262.02C268.587 261.645 268.507 261.243 268.507 260.838C268.507 260.432 268.587 260.031 268.742 259.656C268.898 259.281 269.125 258.941 269.413 258.654C269.7 258.368 270.04 258.14 270.415 257.986C270.79 257.831 271.192 257.751 271.597 257.752H350.805C354.785 257.696 354.825 263.98 350.805 263.924Z" fill="#E4E4E4"/>
<path d="M350.805 278.068H271.597C270.779 278.068 269.994 277.743 269.415 277.164C268.837 276.586 268.511 275.801 268.511 274.982C268.511 274.164 268.837 273.379 269.415 272.8C269.994 272.221 270.779 271.896 271.597 271.896H350.805C354.785 271.841 354.825 278.124 350.805 278.068Z" fill="#E4E4E4"/>
<path d="M350.805 292.212H271.597C271.192 292.213 270.79 292.134 270.415 291.979C270.04 291.824 269.7 291.597 269.413 291.31C269.125 291.023 268.898 290.683 268.742 290.308C268.587 289.934 268.507 289.532 268.507 289.126C268.507 288.721 268.587 288.319 268.742 287.944C268.898 287.57 269.125 287.229 269.413 286.943C269.7 286.656 270.04 286.429 270.415 286.274C270.79 286.119 271.192 286.04 271.597 286.04H350.805C354.785 285.985 354.825 292.268 350.805 292.212Z" fill="#E4E4E4"/>
<path d="M17.9489 139.584C0.725293 116.954 -6.21311 84.8451 6.6072 59.4602C19.3292 87.6487 41.6119 110.429 69.5127 123.77C80.2916 128.876 92.8119 133.433 97.9142 144.214C101.089 150.922 100.609 158.899 98.2235 165.926C95.838 172.954 91.7046 179.234 87.6147 185.427L87.4196 187.269C61.0053 176.731 35.1725 162.214 17.9489 139.584Z" fill="#F0F0F0"/>
<path d="M7.17126 59.6551C8.22692 82.9228 16.7228 106.004 31.3381 124.184C34.4979 128.114 38.0454 131.826 42.2891 134.596C46.4463 137.264 51.2421 138.77 56.1783 138.958C60.7772 139.226 65.5125 138.967 69.9663 140.348C74.6609 141.803 78.1595 145.252 80.2257 149.654C82.7536 155.04 83.1954 161.014 83.4245 166.87C83.6788 173.373 83.84 180.131 86.9876 186.003C87.369 186.714 86.2428 187.265 85.862 186.554C80.3856 176.338 83.6902 164.261 80.3636 153.489C78.8114 148.462 75.735 143.873 70.6698 141.918C66.2404 140.209 61.3572 140.472 56.6983 140.241C51.8064 139.999 47.2253 138.964 42.9588 136.482C38.5944 133.943 34.8944 130.362 31.6479 126.529C24.351 117.784 18.4746 107.945 14.2338 97.3745C9.32702 85.3369 6.51554 72.5486 5.92106 59.563C5.88459 58.7592 7.13505 58.8566 7.17127 59.6551L7.17126 59.6551Z" fill="white"/>
<path d="M26.2757 118.525C22.8493 120.561 18.8108 121.313 14.8813 120.646C10.9519 119.979 7.38752 117.937 4.82465 114.884C4.3082 114.265 5.24643 113.433 5.76357 114.054C8.14486 116.9 11.4653 118.802 15.1257 119.416C18.786 120.029 22.5451 119.314 25.7245 117.399C26.4159 116.984 26.9632 118.112 26.2757 118.525V118.525Z" fill="white"/>
<path d="M53.8285 139.13C55.9091 131.252 54.9442 122.88 51.1263 115.683C50.7475 114.97 51.8736 114.42 52.252 115.132C56.2111 122.629 57.1974 131.343 55.0143 139.536C54.8057 140.317 53.6211 139.906 53.8285 139.13V139.13Z" fill="white"/>
<path d="M10.9886 85.3725C12.4785 84.8611 13.818 83.9875 14.8869 82.8304C15.9558 81.6733 16.7205 80.2689 17.1125 78.7432C17.3111 77.9602 18.4956 78.3715 18.2982 79.1494C17.8573 80.833 17.0109 82.3831 15.8327 83.6641C14.6546 84.9451 13.1807 85.9182 11.5398 86.4982C11.3897 86.5658 11.2195 86.5738 11.0638 86.5204C10.908 86.4671 10.7784 86.3564 10.7013 86.211C10.6291 86.0616 10.6187 85.8897 10.6725 85.7327C10.7263 85.5757 10.8399 85.4462 10.9886 85.3725V85.3725Z" fill="white"/>
<path d="M100.504 38.1343C100.394 38.6267 100.284 39.1191 100.181 39.6195C98.7347 46.2476 97.8293 52.9821 97.4738 59.7568C97.438 60.2802 97.4096 60.8111 97.3889 61.3344C96.7063 77.6652 99.0616 93.9809 104.335 109.452C106.439 115.606 109.008 121.592 112.021 127.356C116.181 135.317 121.325 143.618 122.576 152.234C122.717 153.132 122.801 154.037 122.83 154.945L89.6824 187.364C89.5701 187.4 89.4647 187.444 89.3521 187.48L88.0878 188.835C87.9116 188.549 87.7351 188.248 87.559 187.961C87.4562 187.796 87.3607 187.623 87.2578 187.457C87.1916 187.344 87.1257 187.231 87.0595 187.133C87.0373 187.096 87.0155 187.058 87.0007 187.028C86.9345 186.93 86.8834 186.832 86.8246 186.741C85.8333 185.062 84.8521 183.373 83.881 181.674C83.8736 181.667 83.8736 181.667 83.8736 181.652C76.5074 168.688 70.1587 154.996 66.0901 140.775C65.9678 140.347 65.8377 139.912 65.7306 139.469C63.9322 133.049 62.6616 126.492 61.9314 119.865C61.5432 116.235 61.3391 112.587 61.3198 108.937C61.288 99.5034 62.7401 90.1238 65.623 81.1418C71.3727 63.2371 82.7847 47.3706 99.2405 38.7785C99.6616 38.5589 100.076 38.3462 100.504 38.1343Z" fill="#F0F0F0"/>
<path d="M100.841 38.6278C87.6752 57.8413 80.5622 81.3854 81.2863 104.7C81.4428 109.741 82.0403 114.841 83.761 119.607C85.4739 124.241 88.3963 128.331 92.2245 131.452C95.7354 134.435 99.6722 137.079 102.397 140.863C105.269 144.852 105.986 149.712 104.985 154.471C103.761 160.293 100.517 165.329 97.1741 170.143C93.4622 175.488 89.522 180.981 88.4999 187.564C88.376 188.362 87.1456 188.123 87.2692 187.327C89.0474 175.873 98.9573 168.219 102.787 157.615C104.574 152.667 104.881 147.151 102.013 142.541C99.5056 138.509 95.4484 135.779 91.8673 132.79C88.1072 129.651 85.0724 126.067 83.1603 121.516C81.2044 116.861 80.4063 111.774 80.1216 106.76C79.5608 95.3836 80.7921 83.9902 83.7705 72.9968C87.1002 60.4312 92.5548 48.5278 99.8984 37.8015C100.353 37.1378 101.293 37.9685 100.841 38.6278L100.841 38.6278Z" fill="white"/>
<path d="M80.6511 97.1344C76.6896 96.6969 73.0126 94.8656 70.2767 91.9673C67.5408 89.0691 65.9242 85.2927 65.7156 81.3125C65.6761 80.5071 66.926 80.4079 66.9655 81.2145C67.1529 84.9211 68.6591 88.4387 71.2123 91.1324C73.7654 93.826 77.1974 95.5183 80.8887 95.9037C81.6908 95.9884 81.4486 97.2186 80.6511 97.1344H80.6511Z" fill="white"/>
<path d="M90.2451 130.175C96.649 125.138 100.919 117.872 102.204 109.827C102.331 109.03 103.561 109.268 103.435 110.064C102.082 118.434 97.6229 125.986 90.9474 131.213C90.3107 131.711 89.612 130.67 90.2451 130.175V130.175Z" fill="white"/>
<path d="M88.4053 61.4601C89.9028 61.9487 91.4983 62.0578 93.0484 61.7775C94.5985 61.4971 96.0547 60.8362 97.2862 59.854C97.9162 59.3484 98.6143 60.3899 97.9884 60.8922C96.6227 61.971 95.0136 62.699 93.3017 63.0126C91.5897 63.3261 89.8271 63.2156 88.1677 62.6908C88.0071 62.6544 87.8664 62.5583 87.7742 62.4219C87.682 62.2856 87.6451 62.1192 87.6711 61.9566C87.7034 61.7938 87.7986 61.6504 87.9361 61.5574C88.0736 61.4644 88.2422 61.4295 88.4053 61.4601V61.4601Z" fill="white"/>
<path d="M109.345 101.331C117.014 101.331 123.232 95.114 123.232 87.4445C123.232 79.775 117.014 73.5576 109.345 73.5576C101.675 73.5576 95.4581 79.775 95.4581 87.4445C95.4581 95.114 101.675 101.331 109.345 101.331Z" fill="#2F2E41"/>
<path d="M185.33 221.079H87.4896C86.8078 221.078 86.1541 220.807 85.672 220.325C85.1899 219.843 84.9187 219.189 84.9179 218.508V178.808C84.9187 178.126 85.1899 177.473 85.672 176.991C86.1541 176.509 86.8078 176.237 87.4896 176.237H185.33C186.012 176.237 186.665 176.509 187.147 176.991C187.63 177.473 187.901 178.126 187.901 178.808V218.508C187.901 219.189 187.63 219.843 187.147 220.325C186.665 220.807 186.012 221.078 185.33 221.079V221.079Z" fill="#D1D3D4"/>
<path d="M176.014 240.123H96.8058C95.9897 240.119 95.2083 239.793 94.6326 239.214C94.0568 238.636 93.7336 237.853 93.7336 237.037C93.7336 236.221 94.0568 235.438 94.6326 234.86C95.2083 234.281 95.9897 233.955 96.8058 233.951H176.014C179.993 233.895 180.033 240.179 176.014 240.123Z" fill="#E4E4E4"/>
<path d="M176.014 254.268H96.8058C96.4002 254.268 95.9984 254.189 95.6235 254.034C95.2486 253.879 94.9079 253.652 94.6208 253.365C94.3338 253.079 94.1061 252.738 93.9508 252.364C93.7954 251.989 93.7154 251.587 93.7154 251.182C93.7154 250.776 93.7954 250.374 93.9508 250C94.1061 249.625 94.3338 249.285 94.6208 248.998C94.9079 248.711 95.2486 248.484 95.6235 248.329C95.9984 248.174 96.4002 248.095 96.8058 248.096H176.014C179.993 248.04 180.033 254.324 176.014 254.268Z" fill="#E4E4E4"/>
<path d="M176.014 268.412H96.8058C95.9874 268.412 95.2024 268.087 94.6237 267.508C94.045 266.929 93.7198 266.144 93.7198 265.326C93.7198 264.507 94.045 263.722 94.6237 263.143C95.2024 262.565 95.9874 262.24 96.8058 262.24H176.014C179.993 262.184 180.033 268.468 176.014 268.412Z" fill="#E4E4E4"/>
<path d="M182.517 114.869C182.141 115.439 181.644 115.92 181.062 116.277C180.48 116.635 179.827 116.861 179.148 116.938C178.469 117.016 177.782 116.944 177.134 116.727C176.486 116.51 175.894 116.154 175.399 115.684L140.73 130.483L141.642 121.902L175.428 108.803C176.273 108.023 177.375 107.581 178.525 107.559C179.675 107.538 180.793 107.939 181.667 108.687C182.541 109.435 183.11 110.477 183.267 111.616C183.424 112.756 183.157 113.913 182.517 114.869V114.869Z" fill="#FFB6B6"/>
<path d="M111.951 114.072C111.951 114.072 107.665 118.235 111.919 123.593C116.173 128.95 137.205 132.434 140.578 133.097C143.952 133.76 162.715 120.997 162.715 120.997L164.532 111.75L143.588 118.936L111.951 114.072Z" fill="#4D76B5"/>
<path d="M100.44 145.66L100.778 152.073C100.778 152.073 99.7815 157.753 100.601 158.979C101.414 160.199 123.603 160.353 123.603 160.353C123.603 160.353 125.069 152.449 126.332 145.531L100.44 145.66Z" fill="#FFB6B6"/>
<path d="M164.237 230.453L168.876 229.516L167.548 210.778L160.702 212.162L164.237 230.453Z" fill="#FFB6B6"/>
<path d="M170.882 206.069L175.194 204.13L169.6 186.202L163.235 189.064L170.882 206.069Z" fill="#FFB6B6"/>
<path d="M174.638 195.967L166.518 200.565L146.492 168.385C132.434 177.856 118.686 182.392 104.828 184.812C100.143 185.647 95.3654 185.224 94.4658 180.455C94.4238 180.232 94.3902 180.008 94.3653 179.782C93.8119 174.573 100.292 167.896 101.115 161.523L118.849 160.459L121.036 163.263L141.544 150.654C142.54 150.055 143.644 149.659 144.793 149.489C145.942 149.319 147.114 149.378 148.24 149.663C149.366 149.948 150.425 150.452 151.355 151.148C152.285 151.844 153.069 152.717 153.66 153.717C153.796 153.94 153.921 154.169 154.037 154.403L174.638 195.967Z" fill="#2F2E41"/>
<path d="M169.668 217.615L160.377 218.479L143.53 184.024C126.824 186.897 111.063 187.818 97.4314 184.342C95.1934 183.751 93.2779 182.303 92.0987 180.311C90.9196 178.319 90.5715 175.944 91.1298 173.697C91.1828 173.477 91.2442 173.259 91.3139 173.043C92.9454 168.065 97.2161 164.543 100.581 159.068L125.158 159.441L122.413 168.913L146.288 165.823C147.442 165.685 148.611 165.777 149.729 166.093C150.847 166.409 151.891 166.944 152.801 167.665C153.712 168.387 154.471 169.281 155.034 170.298C155.597 171.314 155.953 172.431 156.082 173.586C156.114 173.845 156.135 174.105 156.145 174.366L169.668 217.615Z" fill="#2F2E41"/>
<path d="M110.037 102.503C115.548 102.503 120.017 98.035 120.017 92.5233C120.017 87.0116 115.548 82.5435 110.037 82.5435C104.525 82.5435 100.057 87.0116 100.057 92.5233C100.057 98.035 104.525 102.503 110.037 102.503Z" fill="#FFB6B6"/>
<path d="M104.186 106.106L113.337 107.182C113.723 107.228 114.085 107.393 114.373 107.653C114.66 107.914 114.86 108.259 114.943 108.638L116.398 115.297L125.469 125.98C125.469 125.98 128.727 132.088 127.505 139.01C126.284 145.932 125.747 151.076 125.747 151.076C125.747 151.076 101.413 160.2 100.598 158.978C99.7841 157.756 99.5198 152.208 99.5198 152.208L96.2623 115.968C96.2623 115.968 99.927 109.861 101.963 109.861C103.277 109.816 103.108 106.859 104.186 106.106Z" fill="#4D76B5"/>
<path d="M125.994 153.304C127.277 153.304 128.318 152.056 128.318 150.516C128.318 148.976 127.277 147.728 125.994 147.728C124.711 147.728 123.671 148.976 123.671 150.516C123.671 152.056 124.711 153.304 125.994 153.304Z" fill="#4D76B5"/>
<path d="M161.935 225.628L169.007 222.084L170.34 225.194L179.283 227.001C179.725 227.091 180.127 227.319 180.429 227.652C180.732 227.986 180.921 228.408 180.967 228.856C181.013 229.304 180.915 229.756 180.686 230.144C180.458 230.533 180.111 230.838 179.697 231.015L171.056 234.719L168.248 232.282L168.985 235.607L165.727 237.004L161.935 225.628Z" fill="#2F2E41"/>
<path d="M168.858 204.577L175.866 200.909L177.254 203.995L186.227 205.645C186.671 205.726 187.076 205.947 187.385 206.276C187.694 206.604 187.889 207.022 187.944 207.47C187.998 207.917 187.907 208.37 187.686 208.762C187.464 209.155 187.123 209.466 186.712 209.651L178.138 213.506L175.287 211.119L176.083 214.43L172.85 215.884L168.858 204.577Z" fill="#2F2E41"/>
<path d="M104.335 89.3931C101.698 89.3973 99.125 88.5855 96.9682 87.069L96.8962 87.0185V86.9307C96.8991 84.3803 97.9135 81.9353 99.7169 80.1319C101.52 78.3286 103.965 77.3142 106.516 77.3113H110.566C113.116 77.3142 115.561 78.3286 117.365 80.1319C119.168 81.9353 120.182 84.3803 120.185 86.9307C120.183 87.5144 119.952 88.074 119.543 88.4903C119.134 88.9066 118.578 89.1467 117.995 89.1595L104.562 89.3911C104.487 89.3924 104.411 89.3931 104.335 89.3931Z" fill="#2F2E41"/>
<path d="M144.505 167.022C143.824 167.085 143.139 166.998 142.496 166.768C141.853 166.537 141.268 166.168 140.783 165.687C140.298 165.206 139.925 164.624 139.689 163.983C139.453 163.342 139.36 162.657 139.418 161.976L106.193 144.171L113.46 139.518L144.807 157.697C145.944 157.869 146.978 158.453 147.714 159.337C148.449 160.221 148.835 161.344 148.798 162.494C148.761 163.643 148.303 164.739 147.512 165.574C146.72 166.408 145.651 166.924 144.505 167.022H144.505Z" fill="#FFB6B6"/>
<path d="M101.008 111.451C101.008 111.451 95.079 110.708 93.5573 117.378C92.0356 124.047 102.466 142.64 104.058 145.687C105.65 148.734 127.341 155.399 127.341 155.399L135.694 151.036L116.992 139.183L101.008 111.451Z" fill="#4D76B5"/>
<path d="M111.581 78.7984C112.515 77.6534 111.785 75.9576 111.019 74.694C109.265 71.7989 107.423 68.9591 105.495 66.1745C103.084 62.695 100.164 59.0573 96.0144 58.2231C92.2299 57.4624 88.4174 59.2608 85.1616 61.3346C81.9606 63.3736 78.8078 65.942 77.5895 69.5363C76.4235 72.9761 77.2424 76.796 78.6931 80.1257C79.9356 82.9775 81.6072 86.3876 79.8352 88.9442C78.987 89.9947 77.8468 90.7707 76.5583 91.1744C73.2861 92.4456 69.7698 92.9644 66.2698 92.6925C71.0753 92.6409 75.2817 97.5751 79.9402 96.3947C82.5819 95.7253 84.3413 93.2625 85.6074 90.8492C86.5335 89.2285 87.16 87.4542 87.4568 85.6113C87.7646 83.1116 87.0989 80.4811 87.9394 78.1069C88.814 75.6359 91.1393 73.9826 93.4864 72.8155C95.0447 72.0406 96.7436 71.3934 98.479 71.5247C103.398 71.8971 105.946 77.9521 110.614 79.5486" fill="#2F2E41"/>
<path d="M278.777 112.59H180.937C180.255 112.589 179.601 112.318 179.119 111.836C178.637 111.354 178.366 110.7 178.365 110.018V70.3187C178.366 69.6369 178.637 68.9833 179.119 68.5012C179.601 68.0191 180.255 67.7479 180.937 67.7471H278.777C279.459 67.7479 280.112 68.019 280.595 68.5012C281.077 68.9833 281.348 69.6369 281.349 70.3187V110.018C281.348 110.7 281.077 111.354 280.595 111.836C280.112 112.318 279.459 112.589 278.777 112.59V112.59Z" fill="#4D76B5"/>
<path d="M269.461 131.634H190.253C189.435 131.634 188.65 131.308 188.071 130.73C187.492 130.151 187.167 129.366 187.167 128.548C187.167 127.729 187.492 126.944 188.071 126.365C188.65 125.787 189.435 125.462 190.253 125.462H269.461C273.441 125.406 273.48 131.69 269.461 131.634Z" fill="#E4E4E4"/>
<path d="M269.461 145.778H190.253C189.847 145.778 189.446 145.699 189.071 145.544C188.696 145.389 188.355 145.162 188.068 144.876C187.781 144.589 187.553 144.249 187.398 143.874C187.243 143.499 187.163 143.097 187.163 142.692C187.163 142.286 187.243 141.885 187.398 141.51C187.553 141.135 187.781 140.795 188.068 140.508C188.355 140.222 188.696 139.994 189.071 139.839C189.446 139.685 189.847 139.605 190.253 139.606H269.461C273.441 139.55 273.48 145.834 269.461 145.778Z" fill="#E4E4E4"/>
<path d="M269.461 159.922H190.253C189.435 159.922 188.65 159.597 188.071 159.018C187.492 158.44 187.167 157.655 187.167 156.836C187.167 156.018 187.492 155.233 188.071 154.654C188.65 154.075 189.435 153.75 190.253 153.75H269.461C273.441 153.695 273.48 159.978 269.461 159.922Z" fill="#E4E4E4"/>
<path d="M383.184 14.4704H55.4352C54.9485 14.4699 54.4819 14.2763 54.1377 13.9322C53.7935 13.588 53.6 13.1213 53.5994 12.6346V1.83582C53.6 1.34909 53.7935 0.882453 54.1377 0.538285C54.4819 0.194117 54.9485 0.000532233 55.4352 0H383.184C383.67 0.000532233 384.137 0.194117 384.481 0.538285C384.825 0.882453 385.019 1.34909 385.019 1.83582V12.6346C385.019 13.1213 384.825 13.588 384.481 13.9322C384.137 14.2763 383.67 14.4699 383.184 14.4704V14.4704Z" fill="#E6E7E8"/>
<path d="M64.2535 9.31486C65.6929 9.31486 66.8599 8.14794 66.8599 6.70846C66.8599 5.26898 65.6929 4.10205 64.2535 4.10205C62.814 4.10205 61.6471 5.26898 61.6471 6.70846C61.6471 8.14794 62.814 9.31486 64.2535 9.31486Z" fill="white"/>
<path d="M74.1465 9.31486C75.586 9.31486 76.7529 8.14794 76.7529 6.70846C76.7529 5.26898 75.586 4.10205 74.1465 4.10205C72.707 4.10205 71.5401 5.26898 71.5401 6.70846C71.5401 8.14794 72.707 9.31486 74.1465 9.31486Z" fill="white"/>
<path d="M84.04 9.31486C85.4795 9.31486 86.6464 8.14794 86.6464 6.70846C86.6464 5.26898 85.4795 4.10205 84.04 4.10205C82.6006 4.10205 81.4336 5.26898 81.4336 6.70846C81.4336 8.14794 82.6006 9.31486 84.04 9.31486Z" fill="white"/>
<path d="M373.49 4.91479H362.098C361.876 4.91298 361.663 4.82328 361.506 4.66522C361.349 4.50716 361.261 4.29355 361.261 4.07092C361.261 3.84829 361.349 3.63468 361.506 3.47662C361.663 3.31856 361.876 3.22886 362.098 3.22705H373.49C373.713 3.22886 373.926 3.31856 374.083 3.47662C374.239 3.63468 374.327 3.84829 374.327 4.07092C374.327 4.29355 374.239 4.50716 374.083 4.66522C373.926 4.82328 373.713 4.91298 373.49 4.91479V4.91479Z" fill="white"/>
<path d="M373.49 8.07912H362.098C361.874 8.07912 361.66 7.99021 361.501 7.83196C361.343 7.6737 361.254 7.45906 361.254 7.23525C361.254 7.01144 361.343 6.79681 361.501 6.63855C361.66 6.48029 361.874 6.39139 362.098 6.39139H373.49C373.602 6.39043 373.712 6.41155 373.816 6.45354C373.919 6.49552 374.013 6.55752 374.092 6.63597C374.171 6.71443 374.234 6.80778 374.277 6.91064C374.319 7.01349 374.341 7.12382 374.341 7.23525C374.341 7.34668 374.319 7.45701 374.277 7.55987C374.234 7.66273 374.171 7.75608 374.092 7.83453C374.013 7.91299 373.919 7.97499 373.816 8.01697C373.712 8.05895 373.602 8.08007 373.49 8.07912Z" fill="white"/>
<path d="M373.49 11.2436H362.098C361.874 11.2436 361.66 11.1547 361.501 10.9965C361.343 10.8382 361.254 10.6236 361.254 10.3998C361.254 10.176 361.343 9.96134 361.501 9.80308C361.66 9.64482 361.874 9.55591 362.098 9.55591H373.49C373.714 9.55591 373.929 9.64482 374.087 9.80308C374.245 9.96134 374.334 10.176 374.334 10.3998C374.334 10.6236 374.245 10.8382 374.087 10.9965C373.929 11.1547 373.714 11.2436 373.49 11.2436Z" fill="white"/>
</svg>
