<svg width="40" height="40" viewBox="0 0 40 40" fill="none" xmlns="http://www.w3.org/2000/svg">
<path d="M35.095 11.9679C35.1105 12.3199 35.1105 12.6559 35.1105 13.0079C35.1259 23.68 27.2851 36 12.9464 36C8.7173 36 4.56539 34.736 1 32.368C1.61738 32.448 2.23477 32.48 2.85215 32.48C6.35581 32.48 9.76686 31.264 12.5297 29.008C9.19578 28.944 6.2632 26.688 5.24452 23.392C6.41755 23.632 7.62145 23.584 8.76361 23.248C5.13647 22.512 2.52803 19.1999 2.51259 15.3439C2.51259 15.3119 2.51259 15.2799 2.51259 15.2479C3.59301 15.8719 4.81235 16.2239 6.04712 16.2559C2.63607 13.8879 1.57108 9.16791 3.63932 5.4719C7.60601 10.5279 13.4403 13.5839 19.7067 13.9199C19.0739 11.1199 19.9383 8.17591 21.9602 6.1919C25.0934 3.13589 30.0325 3.2959 32.9959 6.54391C34.7401 6.1919 36.4224 5.5199 37.9504 4.5759C37.3639 6.44791 36.1446 8.03191 34.524 9.03991C36.0674 8.84791 37.58 8.41591 39 7.77591C37.9504 9.40792 36.6231 10.8159 35.095 11.9679Z" fill="#1D9BF0"/>
</svg>
