<svg width="24" height="24" viewBox="0 0 24 24" fill="none" xmlns="http://www.w3.org/2000/svg">
<path d="M8 9.49979C7.30964 9.49979 6.75 10.0594 6.75 10.7498C6.75 11.4401 7.30964 11.9998 8 11.9998C8.69036 11.9998 9.25 11.4401 9.25 10.7498C9.25 10.0594 8.69036 9.49979 8 9.49979Z" fill="#C4C4C4"/>
<path d="M12 9.49979C11.3096 9.49979 10.75 10.0594 10.75 10.7498C10.75 11.4401 11.3096 11.9998 12 11.9998C12.6904 11.9998 13.25 11.4401 13.25 10.7498C13.25 10.0594 12.6904 9.49979 12 9.49979Z" fill="#C4C4C4"/>
<path d="M14.75 10.7498C14.75 10.0594 15.3096 9.49979 16 9.49979C16.6904 9.49979 17.25 10.0594 17.25 10.7498C17.25 11.4401 16.6904 11.9998 16 11.9998C15.3096 11.9998 14.75 11.4401 14.75 10.7498Z" fill="#C4C4C4"/>
<path fill-rule="evenodd" clip-rule="evenodd" d="M16.1007 4.59258C13.4065 4.36283 10.6983 4.34949 8.00194 4.55271L7.80871 4.56728C5.23741 4.76107 3.25 6.9039 3.25 9.4825V17.9998C3.25 18.2637 3.38867 18.5081 3.61515 18.6435C3.84163 18.7789 4.12261 18.7854 4.35504 18.6604L8.26583 16.5587C8.44774 16.461 8.65104 16.4098 8.85756 16.4098H17.834C18.9661 16.4098 19.9362 15.6004 20.1392 14.4867C20.5505 12.2294 20.5829 9.91945 20.2353 7.65154L20.1329 6.98322C19.9464 5.76647 18.951 4.83565 17.7245 4.73106L16.1007 4.59258ZM8.11468 6.04847C10.731 5.85128 13.359 5.86421 15.9733 6.08716L17.597 6.22563C18.1334 6.27137 18.5686 6.67841 18.6502 7.21049L18.7526 7.87881C19.075 9.9821 19.0449 12.1244 18.6635 14.2178C18.5904 14.6185 18.2413 14.9098 17.834 14.9098H8.85756C8.40322 14.9098 7.95596 15.0224 7.55575 15.2374L4.75 16.7453V9.4825C4.75 7.6886 6.13262 6.19786 7.92144 6.06303L8.11468 6.04847Z" fill="#C4C4C4"/>
</svg>
