<svg width="250" height="220" viewBox="0 0 250 220" fill="none" xmlns="http://www.w3.org/2000/svg">
<path d="M248.008 216.555C247.571 217.166 247.13 217.772 246.693 218.374C245.438 219.238 243.949 219.7 242.424 219.697H7.57577C6.11926 219.698 4.69363 219.277 3.47149 218.485C3.0659 217.95 2.66487 217.411 2.25928 216.872L2.66487 216.649L121.555 150.749C122.61 150.165 123.796 149.858 125.001 149.857C126.207 149.855 127.393 150.159 128.449 150.74L247.607 216.333L248.008 216.555Z" fill="#B763FF"/>
<path d="M242.424 77.9858L139.386 18.4803C135.052 15.9775 130.136 14.6587 125.132 14.6563C120.127 14.6538 115.21 15.9678 110.874 18.4663L7.57576 77.9858C5.56741 77.9887 3.64215 78.7878 2.22203 80.2079C0.801916 81.628 0.00284108 83.5533 0 85.5616V212.121C0.00233994 214.13 0.80125 216.055 2.22147 217.476C3.6417 218.896 5.56726 219.695 7.57576 219.697H242.424C244.432 219.694 246.357 218.894 247.777 217.474C249.197 216.054 249.997 214.129 250 212.121V85.5616C249.997 83.5533 249.198 81.628 247.778 80.2079C246.358 78.7877 244.433 77.9887 242.424 77.9858ZM249.109 212.121C249.104 213.893 248.399 215.591 247.146 216.843C245.893 218.096 244.196 218.802 242.424 218.806H7.57576C5.8039 218.803 4.10553 218.097 2.85263 216.844C1.59974 215.592 0.894453 213.893 0.891266 212.121V85.5616C0.893421 83.7894 1.59837 82.0905 2.85149 80.8373C4.10461 79.5842 5.80358 78.8793 7.57576 78.8771L110.874 19.3576C115.21 16.859 120.127 15.5451 125.132 15.5475C130.136 15.55 135.052 16.8688 139.386 19.3716L242.424 78.8771C244.196 78.8793 245.895 79.5842 247.149 80.8373C248.402 82.0905 249.107 83.7894 249.109 85.5616V212.121Z" fill="#3F3D56"/>
<path d="M125.134 149.59C124.358 149.593 123.587 149.463 122.854 149.207L122.719 149.16L122.692 148.86C122.608 148.901 122.523 148.941 122.438 148.979L122.348 149.018L122.259 148.978C122.071 148.896 121.884 148.802 121.704 148.701L39.6614 102.599V8.46686C39.6638 6.28112 40.5332 4.1856 42.0788 2.64004C43.6243 1.09448 45.7198 0.22511 47.9056 0.222656H202.095C204.28 0.22511 206.376 1.09448 207.921 2.64004C209.467 4.1856 210.336 6.28112 210.339 8.46686V102.719L210.225 102.783L128.563 148.701C127.515 149.286 126.334 149.592 125.134 149.59V149.59Z" fill="white"/>
<path d="M125.134 149.813C124.332 149.816 123.536 149.682 122.78 149.418L122.51 149.323L122.498 149.195L122.348 149.261L122.169 149.183C121.974 149.097 121.781 149 121.595 148.895L39.4385 102.73V8.46702C39.441 6.22221 40.3339 4.07007 41.9212 2.48274C43.5085 0.895418 45.6607 0.00254059 47.9055 0H202.094C204.339 0.00255001 206.491 0.895427 208.079 2.48275C209.666 4.07007 210.559 6.22221 210.561 8.46702V102.85L128.672 148.896C127.59 149.499 126.372 149.815 125.134 149.813V149.813ZM123.345 148.665C124.983 149.135 126.741 148.939 128.236 148.119L209.67 102.328V8.46702C209.668 6.4585 208.869 4.53289 207.449 3.11265C206.029 1.69241 204.103 0.893527 202.094 0.891266H47.9055C45.897 0.893517 43.9714 1.6924 42.5511 3.11264C41.1309 4.53289 40.332 6.4585 40.3297 8.46702V102.208L45.6727 105.209L122.032 148.119C122.136 148.177 122.241 148.232 122.349 148.284C122.456 148.232 122.561 148.177 122.665 148.119L123.265 147.781L123.345 148.665Z" fill="#3F3D56"/>
<path d="M248.026 81.2745L215.686 99.4563L210.116 102.589L128.454 148.507C127.439 149.073 126.296 149.369 125.134 149.367C124.383 149.369 123.637 149.244 122.928 148.997C122.731 148.934 122.537 148.86 122.348 148.774C122.166 148.694 121.988 148.605 121.814 148.507L45.4545 105.597L39.8841 102.469L2.04103 81.2032C1.93813 81.1442 1.86265 81.047 1.83096 80.9327C1.79927 80.8184 1.81392 80.6962 1.87174 80.5927C1.92973 80.4899 2.02611 80.4144 2.13973 80.3826C2.25334 80.3509 2.3749 80.3655 2.47774 80.4233L39.8841 101.444L45.4545 104.572L122.25 147.727C122.505 147.87 122.77 147.994 123.044 148.097C123.16 148.142 123.28 148.182 123.4 148.217C124.163 148.452 124.965 148.529 125.759 148.445C126.552 148.36 127.32 148.116 128.017 147.727L210.116 101.569L215.686 98.4358L247.589 80.4991C247.64 80.4704 247.696 80.452 247.754 80.445C247.812 80.438 247.871 80.4425 247.927 80.4582C247.983 80.474 248.036 80.5006 248.082 80.5367C248.128 80.5727 248.166 80.6175 248.195 80.6684C248.224 80.7193 248.242 80.7754 248.249 80.8334C248.256 80.8914 248.252 80.9502 248.236 81.0065C248.22 81.0628 248.194 81.1154 248.158 81.1614C248.121 81.2074 248.077 81.2458 248.026 81.2745V81.2745Z" fill="#3F3D56"/>
<path d="M73.1171 29.4119H60.6394C59.6939 29.4119 58.7871 29.0363 58.1185 28.3677C57.4499 27.6991 57.0743 26.7923 57.0743 25.8468C57.0743 24.9013 57.4499 23.9945 58.1185 23.3259C58.7871 22.6573 59.6939 22.2817 60.6394 22.2817H73.1171C74.0626 22.2817 74.9694 22.6573 75.638 23.3259C76.3066 23.9945 76.6822 24.9013 76.6822 25.8468C76.6822 26.7923 76.3066 27.6991 75.638 28.3677C74.9694 29.0363 74.0626 29.4119 73.1171 29.4119Z" fill="#B763FF"/>
<path d="M87.823 41.4441H60.6394C59.6939 41.4441 58.7871 41.0685 58.1185 40.3999C57.4499 39.7313 57.0743 38.8245 57.0743 37.879C57.0743 36.9335 57.4499 36.0267 58.1185 35.3581C58.7871 34.6896 59.6939 34.314 60.6394 34.314H87.823C88.7685 34.314 89.6753 34.6896 90.3439 35.3581C91.0125 36.0267 91.3881 36.9335 91.3881 37.879C91.3881 38.8245 91.0125 39.7313 90.3439 40.3999C89.6753 41.0685 88.7685 41.4441 87.823 41.4441Z" fill="#E6E6E6"/>
<path d="M163.77 73.5295H86.6755C85.73 73.5295 84.8232 73.1539 84.1547 72.4854C83.4861 71.8168 83.1105 70.91 83.1105 69.9645C83.1105 69.019 83.4861 68.1122 84.1547 67.4436C84.8232 66.775 85.73 66.3994 86.6755 66.3994H163.77C164.716 66.3994 165.622 66.775 166.291 67.4436C166.959 68.1122 167.335 69.019 167.335 69.9645C167.335 70.91 166.959 71.8168 166.291 72.4854C165.622 73.1539 164.716 73.5295 163.77 73.5295Z" fill="#B763FF"/>
<path d="M170.9 87.344H79.0999C78.1543 87.344 77.2475 86.9684 76.579 86.2998C75.9104 85.6312 75.5348 84.7244 75.5348 83.7789C75.5348 82.8334 75.9104 81.9266 76.579 81.258C77.2475 80.5895 78.1543 80.2139 79.0999 80.2139H170.9C171.846 80.2139 172.753 80.5895 173.421 81.258C174.09 81.9266 174.465 82.8334 174.465 83.7789C174.465 84.7244 174.09 85.6312 173.421 86.2998C172.753 86.9684 171.846 87.344 170.9 87.344Z" fill="#E6E6E6"/>
<path d="M170.9 100.713H79.0999C78.1543 100.713 77.2475 100.338 76.579 99.669C75.9104 99.0004 75.5348 98.0936 75.5348 97.1481C75.5348 96.2026 75.9104 95.2958 76.579 94.6272C77.2475 93.9586 78.1543 93.583 79.0999 93.583H170.9C171.846 93.583 172.753 93.9586 173.421 94.6272C174.09 95.2958 174.465 96.2026 174.465 97.1481C174.465 98.0936 174.09 99.0004 173.421 99.669C172.753 100.338 171.846 100.713 170.9 100.713Z" fill="#E6E6E6"/>
</svg>
