<svg width="24" height="24" viewBox="0 0 24 24" fill="none" xmlns="http://www.w3.org/2000/svg">
<path d="M12.35 8.70001C12.7642 8.70001 13.1 9.0358 13.1 9.45001V11.45H15.1C15.5142 11.45 15.85 11.7858 15.85 12.2C15.85 12.6142 15.5142 12.95 15.1 12.95H13.1V14.95C13.1 15.3642 12.7642 15.7 12.35 15.7C11.9358 15.7 11.6 15.3642 11.6 14.95V12.95H9.59995C9.18574 12.95 8.84995 12.6142 8.84995 12.2C8.84995 11.7858 9.18574 11.45 9.59995 11.45H11.6V9.45001C11.6 9.0358 11.9358 8.70001 12.35 8.70001Z" fill="#55D804"/>
<path fill-rule="evenodd" clip-rule="evenodd" d="M4.59182 15.3042C2.34396 9.78675 6.40306 3.75 12.3609 3.75H12.6823C17.1379 3.75 20.7499 7.36201 20.7499 11.8176C20.7499 16.7785 16.7284 20.8 11.7676 20.8H3.94731C3.62905 20.8 3.34545 20.5991 3.23982 20.2989C3.13419 19.9987 3.22954 19.6645 3.47769 19.4652L5.44918 17.8819C5.53538 17.8127 5.56587 17.6951 5.52416 17.5927L4.59182 15.3042ZM12.3609 5.25C7.46834 5.25 4.13502 10.2074 5.98096 14.7383L6.9133 17.0268C7.2053 17.7435 6.99184 18.5669 6.38842 19.0515L6.07897 19.3H11.7676C15.9 19.3 19.2499 15.95 19.2499 11.8176C19.2499 8.19044 16.3095 5.25 12.6823 5.25H12.3609Z" fill="#55D804"/>
</svg>
