<svg width="25" height="24" viewBox="0 0 25 24" fill="none" xmlns="http://www.w3.org/2000/svg">
<path fill-rule="evenodd" clip-rule="evenodd" d="M10.2953 3.25C7.87877 3.25 5.91978 5.15279 5.91978 7.5C5.91978 9.84721 7.87877 11.75 10.2953 11.75C12.7118 11.75 14.6708 9.84721 14.6708 7.5C14.6708 5.15279 12.7118 3.25 10.2953 3.25ZM7.46409 7.5C7.46409 5.98122 8.73167 4.75 10.2953 4.75C11.859 4.75 13.1265 5.98122 13.1265 7.5C13.1265 9.01878 11.859 10.25 10.2953 10.25C8.73167 10.25 7.46409 9.01878 7.46409 7.5Z" fill="#FD5959"/>
<path d="M3.86071 17C3.86071 15.7574 4.89782 14.75 6.17717 14.75H6.5281C6.55524 14.75 6.5822 14.7542 6.60799 14.7623L7.49907 15.045C8.52498 15.3703 9.59603 15.512 10.6612 15.4699C10.8033 15.4643 10.9195 15.3614 10.9495 15.2264C11.0252 14.8864 11.1305 14.5571 11.2628 14.2412C11.3252 14.0921 11.1985 13.9257 11.0336 13.9416C10.009 14.0405 8.96833 13.933 7.97843 13.6191L7.08735 13.3364C6.90679 13.2792 6.71804 13.25 6.5281 13.25H6.17717C4.04493 13.25 2.31641 14.9289 2.31641 17V18.1883C2.31641 18.9415 2.87841 19.5837 3.64376 19.7051C6.31564 20.1288 9.0197 20.2955 11.7169 20.2053C11.8842 20.1997 11.9748 20.0111 11.8805 19.8768C11.6809 19.5925 11.5057 19.2906 11.358 18.9741C11.2869 18.8217 11.1316 18.7209 10.9594 18.7237C8.597 18.762 6.23198 18.5957 3.89259 18.2247C3.87421 18.2218 3.86071 18.2064 3.86071 18.1883V17Z" fill="#FD5959"/>
<path fill-rule="evenodd" clip-rule="evenodd" d="M12.3544 16.5C12.3544 17.4719 12.6716 18.3718 13.2109 19.1074C13.5114 19.5173 13.8809 19.8762 14.3029 20.1681C15.0602 20.6919 15.9867 21 16.9873 21C19.546 21 21.6202 18.9853 21.6202 16.5C21.6202 15.5281 21.303 14.6282 20.7637 13.8926C20.4632 13.4827 20.0937 13.1238 19.6717 12.8319C18.9144 12.3081 17.9879 12 16.9873 12C14.4286 12 12.3544 14.0147 12.3544 16.5ZM16.9873 19.5C16.4145 19.5 15.8781 19.3486 15.4183 19.0846L19.6483 14.976C19.92 15.4227 20.0759 15.9436 20.0759 16.5C20.0759 18.1569 18.6931 19.5 16.9873 19.5ZM14.3263 18.024L18.5563 13.9154C18.0965 13.6514 17.5601 13.5 16.9873 13.5C15.2815 13.5 13.8987 14.8431 13.8987 16.5C13.8987 17.0564 14.0546 17.5773 14.3263 18.024Z" fill="#FD5959"/>
</svg>
