<svg width="250" height="225" viewBox="0 0 250 225" fill="none" xmlns="http://www.w3.org/2000/svg">
<path d="M247.807 85.8223C247.717 85.8223 247.63 85.7949 247.556 85.7437L126.259 1.26846C125.889 1.01258 125.451 0.875836 125.002 0.876602C124.553 0.877368 124.114 1.01561 123.746 1.27274L3.32208 85.7428C3.22683 85.8096 3.10894 85.8359 2.99435 85.8158C2.87976 85.7957 2.77784 85.7308 2.71103 85.6356C2.64422 85.5403 2.61799 85.4225 2.6381 85.3079C2.65821 85.1933 2.72302 85.0914 2.81827 85.0245L123.242 0.554454C123.758 0.19452 124.371 0.00103755 125 4.16122e-06C125.629 -0.00102923 126.243 0.190434 126.76 0.548671L248.058 85.0237C248.134 85.0771 248.192 85.1535 248.222 85.2419C248.252 85.3303 248.253 85.426 248.225 85.5151C248.197 85.6042 248.142 85.6821 248.066 85.7373C247.991 85.7926 247.9 85.8223 247.807 85.8223L247.807 85.8223Z" fill="#3F3D56"/>
<path d="M10.2035 88.8164L125.121 3.64844L240.911 94.8765L131.042 160.008L71.393 146.412L10.2035 88.8164Z" fill="#E6E6E6"/>
<path d="M76.4279 200.237H19.6558C19.3072 200.238 18.9619 200.17 18.6397 200.036C18.3175 199.903 18.0248 199.708 17.7781 199.462C17.5314 199.215 17.3358 198.923 17.2023 198.601C17.0688 198.279 17 197.934 17 197.585C17 197.236 17.0688 196.891 17.2023 196.569C17.3358 196.247 17.5314 195.955 17.7781 195.708C18.0248 195.462 18.3175 195.267 18.6397 195.134C18.9619 195 19.3072 194.932 19.6558 194.933H76.4279C76.7765 194.932 77.1217 195 77.4439 195.134C77.7661 195.267 78.0589 195.462 78.3056 195.708C78.5522 195.955 78.7479 196.247 78.8814 196.569C79.0149 196.891 79.0836 197.236 79.0836 197.585C79.0836 197.934 79.0149 198.279 78.8814 198.601C78.7479 198.923 78.5522 199.215 78.3056 199.462C78.0589 199.708 77.7661 199.903 77.4439 200.036C77.1217 200.17 76.7765 200.238 76.4279 200.237V200.237Z" fill="#A963FF"/>
<path d="M40.0244 188.834H19.6558C19.3072 188.834 18.9619 188.766 18.6397 188.633C18.3175 188.5 18.0248 188.305 17.7781 188.058C17.5314 187.812 17.3358 187.519 17.2023 187.197C17.0688 186.875 17 186.53 17 186.182C17 185.833 17.0688 185.488 17.2023 185.166C17.3358 184.844 17.5314 184.551 17.7781 184.305C18.0248 184.059 18.3175 183.863 18.6397 183.73C18.9619 183.597 19.3072 183.529 19.6558 183.529H40.0244C40.373 183.529 40.7182 183.597 41.0404 183.73C41.3626 183.863 41.6554 184.059 41.9021 184.305C42.1487 184.551 42.3444 184.844 42.4779 185.166C42.6114 185.488 42.6801 185.833 42.6801 186.182C42.6801 186.53 42.6114 186.875 42.4779 187.197C42.3444 187.519 42.1487 187.812 41.9021 188.058C41.6554 188.305 41.3626 188.5 41.0404 188.633C40.7182 188.766 40.373 188.834 40.0244 188.834Z" fill="#A963FF"/>
<path d="M126.737 136.255C126.305 136.255 125.878 136.171 125.479 136.008L54.6054 106.601V14.5506C54.6063 13.7367 54.9301 12.9563 55.5056 12.3808C56.0812 11.8052 56.8616 11.4814 57.6755 11.4805H193.64C194.454 11.4814 195.235 11.8052 195.81 12.3808C196.386 12.9563 196.71 13.7367 196.711 14.5506V106.665L196.577 106.722L128.033 135.994C127.623 136.166 127.182 136.255 126.737 136.255Z" fill="white"/>
<path d="M126.737 136.473C126.277 136.474 125.821 136.385 125.395 136.211L54.3861 106.747V14.5502C54.3871 13.6781 54.7339 12.842 55.3506 12.2253C55.9673 11.6086 56.8034 11.2617 57.6755 11.2607H193.64C194.513 11.2617 195.349 11.6086 195.965 12.2253C196.582 12.842 196.929 13.6781 196.93 14.5502V106.809L128.12 136.195C127.682 136.379 127.212 136.474 126.737 136.473V136.473ZM55.2632 106.161L125.73 135.4C126.387 135.666 127.123 135.662 127.777 135.387L196.053 106.23V14.5502C196.052 13.9107 195.798 13.2975 195.345 12.8453C194.893 12.3931 194.28 12.1387 193.64 12.1379H57.6756C57.036 12.1387 56.4229 12.3931 55.9707 12.8453C55.5184 13.2975 55.264 13.9107 55.2633 14.5502L55.2632 106.161Z" fill="#3F3D56"/>
<path d="M246.93 84.9453H246.842L196.491 106.445L127.601 135.862C127.332 135.975 127.043 136.034 126.751 136.036C126.459 136.037 126.169 135.981 125.899 135.871L54.8246 106.384L3.23679 84.9804L3.15798 84.9453H3.07018C2.25619 84.9462 1.4758 85.27 0.900228 85.8455C0.324654 86.4211 0.00090318 87.2015 0 88.0155V221.349C0.000904339 222.163 0.324655 222.943 0.900228 223.519C1.4758 224.094 2.25619 224.418 3.07018 224.419H246.93C247.744 224.418 248.524 224.094 249.1 223.519C249.675 222.943 249.999 222.163 250 221.349V88.0155C249.999 87.2015 249.675 86.4211 249.1 85.8455C248.524 85.27 247.744 84.9462 246.93 84.9453V84.9453ZM249.123 221.349C249.123 221.93 248.891 222.488 248.48 222.899C248.069 223.31 247.511 223.542 246.93 223.542H3.07018C2.48863 223.542 1.93098 223.31 1.51976 222.899C1.10855 222.488 0.877425 221.93 0.877193 221.349V88.0155C0.877988 87.4484 1.09797 86.9035 1.49113 86.4948C1.8843 86.0862 2.42022 85.8453 2.98687 85.8225L54.8246 107.331L125.562 136.682C126.327 136.994 127.185 136.989 127.947 136.669L196.491 107.397L247.018 85.8225C247.583 85.8469 248.118 86.0885 248.51 86.497C248.902 86.9054 249.122 87.4493 249.123 88.0155V221.349Z" fill="#3F3D56"/>
<path d="M126.029 110.152C123.412 110.157 120.865 109.311 118.772 107.742L118.642 107.644L91.3124 86.7198C90.0467 85.75 88.9844 84.5405 88.1862 83.1602C87.388 81.7798 86.8695 80.2558 86.6602 78.6751C86.451 77.0944 86.5551 75.488 86.9667 73.9476C87.3783 72.4071 88.0893 70.9628 89.0591 69.6971C90.0288 68.4315 91.2384 67.3692 92.6187 66.571C93.999 65.7727 95.523 65.2542 97.1037 65.045C98.6844 64.8357 100.291 64.9399 101.831 65.3515C103.372 65.7631 104.816 66.474 106.082 67.4438L123.784 81.0174L165.616 26.4618C166.586 25.1964 167.796 24.1346 169.177 23.3368C170.557 22.5391 172.082 22.0211 173.662 21.8124C175.243 21.6038 176.849 21.7085 178.39 22.1207C179.93 22.5329 181.374 23.2444 182.639 24.2147L182.379 24.5678L182.646 24.2198C185.198 26.1814 186.869 29.0754 187.29 32.2669C187.711 35.4583 186.849 38.6865 184.893 41.2432L135.688 105.414C134.55 106.892 133.087 108.089 131.412 108.911C129.736 109.733 127.894 110.157 126.029 110.152V110.152Z" fill="#A963FF"/>
</svg>
