<svg width="40" height="40" viewBox="0 0 40 40" fill="none" xmlns="http://www.w3.org/2000/svg">
<g clip-path="url(#clip0_132_354)">
<g filter="url(#filter0_i_132_354)">
<path d="M20.2664 6.93311V33.5998M24.2337 9.79025C23.0363 10.4152 21.6644 10.7446 20.2664 10.7426C18.8685 10.7446 17.4965 10.4152 16.2992 9.79025M16.2992 30.7426C17.4974 30.1194 18.8688 29.7902 20.2664 29.7902C21.6641 29.7902 23.0355 30.1194 24.2337 30.7426M33.5998 13.5998L6.93311 26.9331M32.7255 18.0045C31.503 17.4174 30.488 16.5532 29.7892 15.5046C29.0905 14.4561 28.7343 13.2626 28.759 12.0522M7.80738 22.5283C9.0299 23.1155 10.0449 23.9797 10.7437 25.0282C11.4424 26.0768 11.7985 27.2703 11.7739 28.4807M6.93311 13.5998L33.5998 26.9331M7.80738 18.0045C9.0299 17.4174 10.0449 16.5532 10.7437 15.5046C11.4424 14.4561 11.7985 13.2626 11.7739 12.0522M32.7255 22.5283C31.503 23.1155 30.488 23.9797 29.7892 25.0282C29.0905 26.0768 28.7343 27.2703 28.759 28.4807" stroke="#DFD7E4" stroke-width="2" stroke-linecap="round" stroke-linejoin="round"/>
</g>
</g>
<defs>
<filter id="filter0_i_132_354" x="5.93311" y="5.93311" width="28.667" height="32.6665" filterUnits="userSpaceOnUse" color-interpolation-filters="sRGB">
<feFlood flood-opacity="0" result="BackgroundImageFix"/>
<feBlend mode="normal" in="SourceGraphic" in2="BackgroundImageFix" result="shape"/>
<feColorMatrix in="SourceAlpha" type="matrix" values="0 0 0 0 0 0 0 0 0 0 0 0 0 0 0 0 0 0 127 0" result="hardAlpha"/>
<feOffset dy="4"/>
<feGaussianBlur stdDeviation="2"/>
<feComposite in2="hardAlpha" operator="arithmetic" k2="-1" k3="1"/>
<feColorMatrix type="matrix" values="0 0 0 0 0 0 0 0 0 0 0 0 0 0 0 0 0 0 0.25 0"/>
<feBlend mode="normal" in2="shape" result="effect1_innerShadow_132_354"/>
</filter>
<clipPath id="clip0_132_354">
<rect width="40" height="40" fill="white"/>
</clipPath>
</defs>
</svg>
