<svg width="40" height="40" viewBox="0 0 40 40" fill="none" xmlns="http://www.w3.org/2000/svg">
<g clip-path="url(#clip0_162_193)">
<path fill-rule="evenodd" clip-rule="evenodd" d="M39.2 20.4547C39.2 19.0365 39.0727 17.6729 38.8364 16.3638H20V24.1001H30.7636C30.3 26.6001 28.8909 28.7183 26.7727 30.1365V35.1547H33.2364C37.0182 31.6729 39.2 26.5456 39.2 20.4547Z" fill="#4285F4"/>
<path fill-rule="evenodd" clip-rule="evenodd" d="M20 40C25.4 40 29.9273 38.2091 33.2363 35.1546L26.7727 30.1364C24.9818 31.3364 22.6909 32.0455 20 32.0455C14.7909 32.0455 10.3818 28.5273 8.80908 23.8H2.12726V28.9819C5.41817 35.5182 12.1818 40 20 40Z" fill="#34A853"/>
<path fill-rule="evenodd" clip-rule="evenodd" d="M8.80909 23.8001C8.40909 22.6001 8.18182 21.3183 8.18182 20.0001C8.18182 18.6819 8.40909 17.4001 8.80909 16.2001V11.0183H2.12727C0.772727 13.7183 0 16.7729 0 20.0001C0 23.2274 0.772727 26.2819 2.12727 28.9819L8.80909 23.8001Z" fill="#FBBC05"/>
<path fill-rule="evenodd" clip-rule="evenodd" d="M20 7.95455C22.9363 7.95455 25.5727 8.96364 27.6454 10.9455L33.3818 5.20909C29.9182 1.98182 25.3909 0 20 0C12.1818 0 5.41817 4.48182 2.12726 11.0182L8.80908 16.2C10.3818 11.4727 14.7909 7.95455 20 7.95455Z" fill="#EA4335"/>
</g>
<defs>
<clipPath id="clip0_162_193">
<rect width="40" height="40" fill="white"/>
</clipPath>
</defs>
</svg>
