<svg width="24" height="24" viewBox="0 0 24 24" fill="none" xmlns="http://www.w3.org/2000/svg">
<path fill-rule="evenodd" clip-rule="evenodd" d="M20.0848 16.9326C20.5298 12.6559 20.5298 8.34456 20.0848 4.06786C19.9261 2.54282 18.1678 1.7703 16.9372 2.68502L12.8336 5.73543C11.5831 6.66494 10.0665 7.16689 8.5084 7.16689H4.6792C3.98884 7.16689 3.4292 7.72653 3.4292 8.41689V12.5836C3.4292 13.2739 3.98884 13.8336 4.6792 13.8336H5.30348L4.45812 16.9885C4.36392 17.34 4.53573 17.7085 4.86559 17.8623L8.54674 19.5789C8.74766 19.6726 8.97974 19.6726 9.18067 19.5789C9.3816 19.4852 9.53078 19.3074 9.58815 19.0933L10.8508 14.3809C10.8643 14.3308 10.8723 14.2806 10.8753 14.2308C11.5727 14.4717 12.2338 14.8192 12.8336 15.265L16.9372 18.3154C18.1677 19.2302 19.9261 18.4576 20.0848 16.9326ZM18.5928 4.2231C19.0271 8.39658 19.0271 12.6039 18.5928 16.7774C18.5545 17.146 18.1295 17.3327 17.8321 17.1116L13.7284 14.0612C12.2193 12.9394 10.3888 12.3336 8.50839 12.3336L4.9292 12.3336L4.9292 8.66689H8.5084C10.3888 8.66689 12.2193 8.06109 13.7284 6.93927L17.8321 3.88886C18.1295 3.66777 18.5545 3.85448 18.5928 4.2231ZM9.43615 13.8932C9.12975 13.8536 8.8199 13.8336 8.50839 13.8336H6.85639L6.06989 16.7688L8.3706 17.8417L9.40196 13.9926C9.41118 13.9582 9.42264 13.925 9.43615 13.8932Z" fill="#C4C4C4"/>
</svg>
