<svg width="25" height="25" viewBox="0 0 25 25" fill="none" xmlns="http://www.w3.org/2000/svg">
<path fill-rule="evenodd" clip-rule="evenodd" d="M22.7207 12.9707C22.7207 13.2431 22.573 13.494 22.3349 13.6263L20.0526 14.8943C15.5412 17.4006 10.7854 19.4394 5.8595 20.9787L5.19441 21.1866C4.96668 21.2577 4.71868 21.2163 4.52645 21.075C4.33422 20.9337 4.2207 20.7093 4.2207 20.4707L4.2207 14.7207C4.2207 14.3297 4.52112 14.0043 4.91089 13.9731L5.13822 13.9549C7.28968 13.7828 9.42457 13.4536 11.5259 12.9704C9.39507 12.4805 7.22972 12.1489 5.0476 11.979L4.91246 11.9684C4.52202 11.938 4.2207 11.6123 4.2207 11.2207L4.2207 5.47071C4.2207 5.23212 4.33422 5.00777 4.52645 4.86644C4.71868 4.72512 4.96668 4.68368 5.19441 4.75485L5.85948 4.96268C10.7854 6.50205 15.5412 8.54078 20.0526 11.0471L22.3349 12.3151C22.573 12.4474 22.7207 12.6983 22.7207 12.9707ZM20.4264 12.9707L19.3241 12.3584C14.9963 9.95403 10.4392 7.98871 5.7207 6.49159L5.7207 10.5303C8.65079 10.7945 11.549 11.3409 14.375 12.1619L14.6799 12.2505C15.0006 12.3436 15.221 12.6375 15.2207 12.9714C15.2204 13.3053 14.9994 13.5988 14.6785 13.6913L14.288 13.804C11.4895 14.6111 8.62074 15.1491 5.7207 15.4107L5.7207 19.4498C10.4392 17.9527 14.9963 15.9874 19.3241 13.5831L20.4264 12.9707Z" fill="#444444"/>
</svg>
