<svg width="24" height="24" viewBox="0 0 24 24" fill="none" xmlns="http://www.w3.org/2000/svg">
<path fill-rule="evenodd" clip-rule="evenodd" d="M11.9998 3.07897L9.78697 5.36847C9.55145 5.61216 9.22707 5.74977 8.88816 5.74977H5.74977V8.88816C5.74977 9.22707 5.61216 9.55145 5.36847 9.78697L3.07897 11.9998L5.36847 14.2126C5.61216 14.4481 5.74977 14.7725 5.74977 15.1114V18.2498H8.88816C9.22707 18.2498 9.55145 18.3874 9.78697 18.6311L11.9998 20.9206L14.2126 18.6311C14.4481 18.3874 14.7725 18.2498 15.1114 18.2498H18.2498V15.1114C18.2498 14.7725 18.3874 14.4481 18.6311 14.2126L20.9206 11.9998L18.6311 9.78698C18.3874 9.55145 18.2498 9.22707 18.2498 8.88817V5.74977H15.1114C14.7725 5.74977 14.4481 5.61216 14.2126 5.36847L11.9998 3.07897ZM11.101 1.85054C11.5923 1.34214 12.4072 1.34214 12.8986 1.85054L15.2174 4.24977H18.4998C19.1901 4.24977 19.7498 4.80942 19.7498 5.49977V8.78211L22.149 11.101C22.6574 11.5923 22.6574 12.4072 22.149 12.8986L19.7498 15.2174V18.4998C19.7498 19.1901 19.1901 19.7498 18.4998 19.7498H15.2174L12.8986 22.149C12.4072 22.6574 11.5923 22.6574 11.101 22.149L8.7821 19.7498H5.49977C4.80942 19.7498 4.24977 19.1901 4.24977 18.4998V15.2174L1.85054 12.8986C1.34214 12.4072 1.34214 11.5923 1.85054 11.101L4.24977 8.7821V5.49977C4.24977 4.80942 4.80942 4.24977 5.49977 4.24977H8.7821L11.101 1.85054Z" fill="#8257FE"/>
<path fill-rule="evenodd" clip-rule="evenodd" d="M7.24977 11.9998C7.24977 9.37642 9.37642 7.24977 11.9998 7.24977C14.6231 7.24977 16.7498 9.37642 16.7498 11.9998C16.7498 14.6231 14.6231 16.7498 11.9998 16.7498C9.37642 16.7498 7.24977 14.6231 7.24977 11.9998ZM11.9998 8.74977C10.2048 8.74977 8.74977 10.2048 8.74977 11.9998C8.74977 13.7947 10.2048 15.2498 11.9998 15.2498C13.7947 15.2498 15.2498 13.7947 15.2498 11.9998C15.2498 10.2048 13.7947 8.74977 11.9998 8.74977Z" fill="#8257FE"/>
</svg>
