<svg width="24" height="24" viewBox="0 0 24 24" fill="none" xmlns="http://www.w3.org/2000/svg">
<path d="M21.0571 7.18066C21.0664 7.39186 21.0664 7.59346 21.0664 7.80466C21.0756 14.2079 16.3712 21.5999 7.76793 21.5999C5.23048 21.5999 2.73933 20.8415 0.600098 19.4207C0.970528 19.4687 1.34096 19.4879 1.71139 19.4879C3.81358 19.4879 5.86021 18.7583 7.51789 17.4047C5.51756 17.3663 3.75802 16.0127 3.14681 14.0351C3.85063 14.1791 4.57297 14.1503 5.25826 13.9487C3.08198 13.5071 1.51691 11.5199 1.50765 9.20626C1.50765 9.18706 1.50765 9.16786 1.50765 9.14866C2.15591 9.52306 2.88751 9.73426 3.62837 9.75346C1.58174 8.33266 0.942746 5.50065 2.18369 3.28304C4.5637 6.31665 8.06427 8.15026 11.8241 8.35186C11.4445 6.67185 11.9631 4.90545 13.1762 3.71505C15.0561 1.88144 18.0196 1.97744 19.7977 3.92625C20.8441 3.71505 21.8535 3.31184 22.7704 2.74544C22.4185 3.86865 21.6869 4.81905 20.7145 5.42385C21.6406 5.30865 22.5481 5.04945 23.4001 4.66545C22.7704 5.64465 21.9739 6.48945 21.0571 7.18066Z" fill="#1D9BF0"/>
</svg>
