<svg width="730" height="688" viewBox="0 0 730 688" fill="none" xmlns="http://www.w3.org/2000/svg">
<path fill-rule="evenodd" clip-rule="evenodd" d="M362.601 0.869363C424.645 -4.86303 485.347 18.529 540.145 48.1857C595.922 78.3722 646.686 118.478 679.827 172.551C713.413 227.352 735.936 291.846 728.617 355.702C721.548 417.372 674.855 464.452 640.446 516.116C608.113 564.663 582.536 620.003 532.559 650.078C482.24 680.357 421.264 680.587 362.601 683.313C301.581 686.149 236.033 697.093 183.271 666.31C130.554 635.554 111.337 571.241 80.3648 518.651C49.1241 465.605 3.97906 417.156 0.341513 355.702C-3.35589 293.237 23.3847 231.68 60.3918 181.222C95.5486 133.287 151.992 109.795 203.038 79.3317C254.816 48.4315 302.559 6.41672 362.601 0.869363Z" fill="#8B8B8B" fill-opacity="0.2"/>
</svg>
